<?xml version="1.0" encoding="UTF-8"?>
<svg version="1.1" xmlns="http://www.w3.org/2000/svg" width="2134" height="2135">
<path d="M0 0 C704.22 0 1408.44 0 2134 0 C2134 704.55 2134 1409.1 2134 2135 C1429.78 2135 725.56 2135 0 2135 C0 1430.45 0 725.9 0 0 Z " fill="#007637" transform="translate(0,0)"/>
<path d="M0 0 C1.24557678 -0.00367584 2.49115356 -0.00735168 3.7744751 -0.01113892 C29.14578398 -0.05028506 54.32085686 1.52695284 79.5 4.625 C80.38877838 4.73265686 81.27755676 4.84031372 82.19326782 4.95123291 C97.38666724 6.80187452 112.40010322 9.11119502 127.375 12.3125 C128.64972168 12.58352539 129.92444336 12.85455078 131.23779297 13.13378906 C145.36330892 16.15654814 159.45155371 19.272918 173.23095703 23.64257812 C175.67678657 24.40679542 178.13214341 25.13425367 180.58984375 25.859375 C263.70249091 50.4869457 342.07720151 91.19900188 408.375 147.3125 C408.90609375 147.76012695 409.4371875 148.20775391 409.984375 148.66894531 C417.29234289 154.83710064 424.4652283 161.12946234 431.4765625 167.6328125 C433.33366933 169.34976033 435.20250769 171.05415675 437.0859375 172.7421875 C443.81954257 178.79677357 450.27480589 185.10655797 456.6875 191.5 C457.95980469 192.76541626 457.95980469 192.76541626 459.2578125 194.05639648 C463.60732452 198.41661105 467.80783076 202.84354782 471.82202148 207.5144043 C474.06684887 210.11354809 476.40916721 212.61194378 478.75 215.125 C483.8655942 220.66907987 488.64840744 226.4327099 493.375 232.3125 C494.38285316 233.54140019 495.39205155 234.76919793 496.40234375 235.99609375 C513.94741329 257.34290325 529.90792086 279.76930001 544.375 303.3125 C544.75930176 303.93334473 545.14360352 304.55418945 545.53955078 305.19384766 C576.46066862 355.24143014 600.57625085 409.61597744 616.375 466.3125 C616.63845215 467.24481445 616.9019043 468.17712891 617.17333984 469.13769531 C626.14857727 501.20182251 632.30151796 534.10110688 636.125 567.16595459 C636.36625581 569.2374208 636.61791953 571.30740312 636.87109375 573.37744141 C639.47504495 595.12755673 639.659222 616.9238665 639.68462753 638.80026245 C639.68745421 641.02643597 639.69297887 643.2525919 639.69863892 645.47875977 C639.73033696 662.65995958 639.28472542 679.69508044 637.61776733 696.8104248 C637.40576385 698.99543316 637.21011624 701.18061524 637.02661133 703.36816406 C634.48998116 733.12959601 629.59432812 762.42730721 622.12841797 791.34082031 C621.28286497 794.67590491 620.51767317 798.02338538 619.77172852 801.38183594 C617.8039979 810.19007186 615.19136858 818.73251662 612.36328125 827.29931641 C611.4392173 830.11670703 610.53280614 832.93936516 609.63009644 835.76365662 C600.21024892 865.167204 588.7491518 893.47483496 575.375 921.3125 C574.95154297 922.1979248 574.52808594 923.08334961 574.09179688 923.99560547 C551.65527665 970.65538941 522.47894294 1014.40801124 488.77539062 1053.67382812 C487.36703398 1055.32182146 485.97143142 1056.97989677 484.578125 1058.640625 C472.86034307 1072.55424 460.21105567 1085.56184989 447.375 1098.4375 C446.88631439 1098.92886444 446.39762878 1099.42022888 445.89413452 1099.92648315 C440.771415 1105.07054958 435.61346888 1110.10737385 430.10009766 1114.83251953 C427.69957737 1116.89195259 425.38556572 1119.04146417 423.0625 1121.1875 C418.63003526 1125.22529322 414.09757823 1129.08557434 409.4296875 1132.84765625 C407.1918842 1134.65335175 404.97018101 1136.47229312 402.7578125 1138.30859375 C393.63801428 1145.84952404 384.25216616 1152.90610182 374.59228516 1159.73925781 C372.4633312 1161.24982589 370.34564243 1162.77490515 368.23046875 1164.3046875 C350.35084819 1177.17571248 331.63332951 1188.63413593 312.375 1199.3125 C311.44494141 1199.83166992 310.51488281 1200.35083984 309.55664062 1200.88574219 C276.79444945 1219.13009035 242.81617578 1234.08454875 207.375 1246.3125 C206.3113623 1246.6847168 205.24772461 1247.05693359 204.15185547 1247.44042969 C181.43865057 1255.37095189 158.37701628 1261.69841447 134.875 1266.8125 C133.70590088 1267.06797607 132.53680176 1267.32345215 131.33227539 1267.58666992 C130.24293701 1267.81588135 129.15359863 1268.04509277 128.03125 1268.28125 C127.08056641 1268.48169922 126.12988281 1268.68214844 125.15039062 1268.88867188 C122.18518004 1269.34148728 119.37023582 1269.34057023 116.375 1269.3125 C116.35210492 1221.61658472 116.33448716 1173.92067002 116.32393467 1126.22475033 C116.32268398 1120.59221635 116.32138966 1114.95968239 116.32006836 1109.32714844 C116.31980605 1108.20582501 116.31954374 1107.08450158 116.31927348 1105.92919865 C116.31492365 1087.77929747 116.30703987 1069.62939945 116.2978472 1051.47950014 C116.28849157 1032.85231799 116.28294034 1014.22513749 116.28091151 995.59795308 C116.27954025 984.10650209 116.27521115 972.61506007 116.26708353 961.12361184 C116.26179253 953.24063191 116.26020107 945.35765661 116.26149862 937.47467503 C116.26213831 932.92848407 116.26116622 928.38230877 116.25579453 923.83612061 C116.25090606 919.66833197 116.25069692 915.50056943 116.25410111 911.33277956 C116.25452146 909.83055663 116.25327187 908.32833203 116.25011682 906.82611236 C116.2038454 883.42056056 116.2038454 883.42056056 118.98849487 878.40823364 C119.69595856 877.73613861 120.40342224 877.06404358 121.13232422 876.37158203 C121.9500531 875.56174866 122.76778198 874.75191528 123.61029053 873.9175415 C124.52264465 873.05787781 125.43499878 872.19821411 126.375 871.3125 C127.35495858 870.32834817 128.33024487 869.33952661 129.30133057 868.34661865 C132.00668067 865.58469515 134.73994581 862.85259881 137.48358536 860.12874985 C139.30337043 858.32195478 141.11981446 856.51185608 142.93551636 854.70095825 C146.78750556 850.86028313 150.64344646 847.02359118 154.5 843.1875 C158.98224777 838.72898704 163.46278716 834.26878366 167.93911362 829.8043251 C169.71557096 828.03427665 171.49504602 826.26730266 173.27468872 824.50045776 C178.29300321 819.50451771 183.20935115 814.48317951 187.80856323 809.09265137 C190.58575871 805.93655313 193.62768108 803.05655087 196.65625 800.14453125 C198.00593717 798.82691804 199.35487494 797.50853682 200.703125 796.18945312 C202.80093411 794.14132117 204.90283077 792.09827599 207.01757812 790.06762695 C209.07757815 788.0860377 211.11815309 786.08610835 213.15625 784.08203125 C213.79566528 783.47672073 214.43508057 782.87141022 215.09387207 782.24775696 C216.69007732 780.66171499 218.12462896 779.18318263 219.375 777.3125 C219.50181772 774.60583683 219.50181772 774.60583683 218.375 772.3125 C218.00503906 771.18457031 217.63507812 770.05664062 217.25390625 768.89453125 C216.38063784 766.39392587 215.50565469 763.89391861 214.62890625 761.39453125 C211.98590523 753.21550089 211.009702 745.2622009 211.0625 736.6875 C211.06741455 735.73182129 211.0723291 734.77614258 211.07739258 733.79150391 C211.47355059 709.52225461 221.10387935 689.16520237 237.8671875 671.71875 C255.29784171 654.96049491 277.59093762 646.75413078 301.6237793 646.96118164 C325.50460281 647.58081787 346.62916942 657.61318561 363.375 674.3125 C364.5815625 675.48425781 364.5815625 675.48425781 365.8125 676.6796875 C381.10190087 692.44688215 388.14381739 713.9909627 388.6875 735.625 C388.24869827 760.76575812 378.05325731 783.53775735 360.375 801.3125 C341.72371814 818.85149575 318.20960099 824.90429586 293.12109375 824.59765625 C282.74139237 824.25391177 272.30659312 821.95265933 263.13671875 816.94921875 C260.78820342 816.10042053 259.67627934 816.38471149 257.375 817.3125 C255.63879214 818.64848597 255.63879214 818.64848597 254.0625 820.375 C253.53011719 820.92285156 252.99773438 821.47070312 252.44921875 822.03515625 C251.25601149 823.34521243 250.07264807 824.66472024 248.91845703 826.00927734 C243.40531992 832.42604983 237.42854726 838.31509093 231.40234375 844.24609375 C227.77160828 847.84186227 224.20442643 851.43396956 220.875 855.3125 C216.04367614 860.94062757 210.68502622 866.04686598 205.40234375 871.24609375 C201.72335861 874.88964725 198.14072655 878.52272461 194.80859375 882.48828125 C192.46696165 885.23596884 190.07936446 887.41005959 187.19140625 889.57421875 C181.87177915 893.69622957 176.26580447 898.26870041 174.76051331 905.10195732 C174.60833232 908.34439548 174.69991372 911.49855225 174.875 914.73999023 C174.92649625 916.66309855 174.97787694 918.58621183 175.02603054 920.50940675 C175.08380594 922.61583015 175.15847118 924.72121442 175.2348938 926.82703781 C175.39422761 931.51116454 175.44762565 936.19364473 175.48217773 940.88015747 C175.48835617 941.70930957 175.49453461 942.53846167 175.50090027 943.39273959 C175.5134081 945.11313028 175.525707 946.8335225 175.53780746 948.5539161 C175.57351079 953.09800872 175.62712798 957.64188543 175.67993164 962.18580627 C175.70177369 964.0938572 175.72359347 966.00190837 175.74539185 967.90995979 C175.76195768 969.3544531 175.76195768 969.3544531 175.77885818 970.8281281 C175.83631786 975.87868427 175.89158859 980.92926438 175.94702148 985.97984314 C176.11154778 1000.93487217 176.27938481 1015.8898638 176.44787598 1030.84484863 C176.5790938 1042.49507963 176.70934101 1054.14531996 176.83693409 1065.79559129 C176.89165192 1070.78406594 176.94712774 1075.77252934 177.00460815 1080.76097298 C177.2868699 1105.27932278 177.44007684 1129.79246757 177.375 1154.3125 C178.70989388 1153.86507285 180.04471324 1153.41742339 181.37950134 1152.96968079 C182.1228369 1152.72041997 182.86617247 1152.47115915 183.63203335 1152.21434498 C241.40663549 1132.72820393 298.40709745 1100.81577693 344.46875 1060.8203125 C347.22522342 1058.4417427 350.03462943 1056.15219364 352.875 1053.875 C358.71425401 1049.11896992 364.20178444 1044.02350531 369.69580078 1038.87841797 C371.39198802 1037.29665801 373.09831283 1035.72665894 374.80859375 1034.16015625 C382.67216135 1026.95677623 390.37896794 1019.7333935 397.3359375 1011.6328125 C399.41042101 1009.27219333 401.53953354 1006.97323833 403.68457031 1004.67700195 C409.52150799 998.42405047 415.03806492 992.00157803 420.375 985.3125 C421.29591185 984.18280792 422.21784111 983.05394468 423.140625 981.92578125 C458.61370709 938.36657716 487.85461175 887.98971879 507.375 835.3125 C507.89797323 833.9190965 508.42140938 832.52586665 508.9453125 831.1328125 C510.41944147 827.20116293 511.86441198 823.25987121 513.28515625 819.30859375 C514.00293111 817.33535606 514.73950883 815.36884126 515.49609375 813.41015625 C520.05439918 801.31943791 523.13242589 788.80532694 526.375 776.3125 C526.73924072 774.92925537 526.73924072 774.92925537 527.11083984 773.51806641 C535.17740873 742.86279496 540.33067101 710.95331763 542.375 679.3125 C542.46112549 678.02118164 542.54725098 676.72986328 542.63598633 675.39941406 C543.36025339 663.95105718 543.57789594 652.53207775 543.5625 641.0625 C543.56156342 640.14942078 543.56062683 639.23634155 543.55966187 638.29559326 C543.49639948 609.60314209 540.67977373 581.64493934 536.375 553.3125 C536.23449219 552.35923828 536.09398437 551.40597656 535.94921875 550.42382812 C535.20222788 545.36317016 534.34199623 540.33568152 533.375 535.3125 C533.19420898 534.36262207 533.01341797 533.41274414 532.82714844 532.43408203 C523.39890485 483.77627655 506.46727195 437.62265214 484.375 393.3125 C483.92157227 392.40161621 483.46814453 391.49073242 483.00097656 390.55224609 C465.85625175 356.36924654 444.16305356 324.45200435 419.79003906 295.03173828 C418.52997335 293.50078888 417.29080531 291.95269353 416.0546875 290.40234375 C410.10875984 282.95347865 403.62789151 276.06494691 397.08984375 269.140625 C394.53040839 266.41211532 392.01619838 263.64330731 389.5 260.875 C383.51867025 254.34195169 377.41555036 248.1230609 370.6953125 242.3515625 C368.33469333 240.27707899 366.03573833 238.14796646 363.73950195 236.00292969 C357.48655047 230.16599201 351.06407803 224.64943508 344.375 219.3125 C343.24530792 218.39158815 342.11644468 217.46965889 340.98828125 216.546875 C315.05149104 195.42641722 286.83087481 177.12262454 257.375 161.3125 C256.52276855 160.85020996 255.67053711 160.38791992 254.79248047 159.91162109 C231.12372161 147.1044065 206.59425388 136.65678854 181.375 127.3125 C180.46395508 126.96767578 179.55291016 126.62285156 178.61425781 126.26757812 C171.87409776 123.7493828 165.06340159 121.70951617 158.125 119.8125 C156.59939453 119.38904297 156.59939453 119.38904297 155.04296875 118.95703125 C151.82274971 118.06633237 148.59952715 117.18747014 145.375 116.3125 C144.17673584 115.98628662 142.97847168 115.66007324 141.74389648 115.32397461 C122.50475859 110.13321402 103.11584496 105.70842895 83.4375 102.5625 C81.73219116 102.28321655 81.73219116 102.28321655 79.99243164 101.99829102 C55.31410673 98.24263781 30.65231835 96.80118239 5.72094727 96.92138672 C2.15438359 96.93846086 -1.41150664 96.9282971 -4.97804737 96.9110508 C-94.59011006 96.5459651 -184.14120653 119.89455135 -333.625 210.3125 C-334.74917348 211.18075869 -335.87419965 212.04791428 -337 212.9140625 C-343.20006085 217.70300306 -349.2607246 222.62595335 -355.1875 227.75 C-355.73970215 228.22671143 -356.2919043 228.70342285 -356.86083984 229.19458008 C-367.38188169 238.37978395 -377.47510585 247.99458906 -387.32958984 257.88671875 C-389.01675958 259.57931347 -390.70930196 261.26640597 -392.40234375 262.953125 C-398.0236498 268.57063315 -403.49578581 274.23569964 -408.625 280.3125 C-409.59761239 281.43085946 -410.57154015 282.54807653 -411.546875 283.6640625 C-442.65229425 319.57037049 -468.94434312 359.5811755 -489.65966797 402.32861328 C-490.65798117 404.38028072 -491.67461487 406.42227957 -492.69140625 408.46484375 C-524.5277893 473.18225242 -543.55585746 548.69226819 -543.828125 620.94140625 C-543.83513931 622.19789978 -543.84215363 623.45439331 -543.84938049 624.7489624 C-543.8668034 628.79101472 -543.8738162 632.83291818 -543.875 636.875 C-543.87544186 637.56512051 -543.87588371 638.25524101 -543.87633896 638.96627426 C-543.88390645 661.5238252 -543.43035224 683.90439851 -540.625 706.3125 C-540.4941803 707.36135376 -540.4941803 707.36135376 -540.36071777 708.43139648 C-537.85015905 728.27461812 -534.16291125 747.8301893 -529.625 767.3125 C-529.30813232 768.69332764 -529.30813232 768.69332764 -528.98486328 770.10205078 C-526.11036988 782.53348195 -522.45769912 794.65068022 -518.45849609 806.76367188 C-517.7176402 809.02920658 -517.00299261 811.30039099 -516.30078125 813.578125 C-508.21191167 839.4224485 -496.7985665 864.1765114 -484.625 888.3125 C-484.13257813 889.2931543 -483.64015625 890.27380859 -483.1328125 891.28417969 C-464.2046852 928.7874927 -439.99816694 963.24012548 -412.8125 995.1875 C-412.15725342 995.96178345 -412.15725342 995.96178345 -411.48876953 996.75170898 C-402.34482094 1007.43040786 -392.57817486 1017.52601684 -382.62353516 1027.44433594 C-380.85851456 1029.2039348 -379.09898867 1030.96890397 -377.33984375 1032.734375 C-371.60370623 1038.47418512 -365.83071909 1044.07592712 -359.625 1049.3125 C-358.54137025 1050.26119808 -357.45929291 1051.2116728 -356.37890625 1052.1640625 C-347.43419093 1059.96615899 -338.12550249 1067.20297435 -328.625 1074.3125 C-327.85462402 1074.89322266 -327.08424805 1075.47394531 -326.29052734 1076.07226562 C-315.35633038 1084.30835554 -304.23523996 1092.061847 -292.625 1099.3125 C-291.60865479 1099.95469482 -291.60865479 1099.95469482 -290.57177734 1100.60986328 C-231.86870803 1139.31512612 -231.86870803 1139.31512612 -165.625 1158.3125 C-165.955 1157.6525 -166.285 1156.9925 -166.625 1156.3125 C-166.65458637 1153.87136843 -166.62118313 1151.46332969 -166.54096985 1149.025177 C-166.52050746 1148.26482647 -166.50004506 1147.50447593 -166.4789626 1146.72108448 C-166.43376167 1145.04816749 -166.38635941 1143.37530894 -166.33708382 1141.70250702 C-166.20103971 1137.04729249 -166.08416993 1132.39160152 -165.96736145 1127.73587036 C-165.94217992 1126.74027611 -165.9169984 1125.74468186 -165.8910538 1124.71891809 C-165.54906779 1110.78548791 -165.39297791 1096.84891192 -165.23304462 1082.9124012 C-165.09767846 1071.58708957 -164.89553395 1060.27031158 -164.53686523 1048.94970703 C-159.84577872 995.48502825 -159.84577872 995.48502825 -177.88563442 947.62714195 C-184.24387935 940.94123188 -191.46052403 935.43675734 -199.45475769 930.85470581 C-205.54680536 927.33684582 -210.59595331 922.48514537 -215.52734375 917.5078125 C-216.18162354 916.85022949 -216.83590332 916.19264648 -217.51000977 915.51513672 C-218.18733154 914.8295166 -218.86465332 914.14389648 -219.5625 913.4375 C-220.64905884 912.34526123 -220.64905884 912.34526123 -221.75756836 911.23095703 C-224.82042424 908.15193049 -227.87722311 905.06691677 -230.93457031 901.98242188 C-233.18344117 899.71534542 -235.43540238 897.45137034 -237.6875 895.1875 C-238.36482178 894.50187988 -239.04214355 893.81625977 -239.73999023 893.10986328 C-243.60952444 889.22079319 -247.59399919 885.54603903 -251.74755859 881.96286011 C-254.49784663 879.54522638 -257.08164699 876.98098249 -259.65625 874.37890625 C-260.43832825 873.59470558 -260.43832825 873.59470558 -261.23620605 872.79466248 C-262.86821078 871.15715002 -264.49666574 869.51616151 -266.125 867.875 C-267.24455632 866.7504167 -268.36434629 865.62606595 -269.484375 864.50195312 C-272.20061534 861.77480656 -274.91368292 859.04454093 -277.625 856.3125 C-278.72005859 856.8089502 -279.81511719 857.30540039 -280.94335938 857.81689453 C-304.6479405 868.53040715 -330.51985447 873.30521527 -355.6640625 863.8359375 C-378.14707404 854.83373862 -395.90853203 838.6320036 -406.3125 816.73046875 C-415.35397444 793.1849624 -416.78504788 768.36058082 -406.828125 744.84765625 C-396.69298355 722.78061878 -378.92768729 705.51469136 -356.34375 696.5625 C-331.82691448 688.32154688 -307.52058459 689.64011723 -284.09765625 701.02734375 C-262.52611129 712.38579895 -247.6214904 730.86102404 -239.6328125 753.765625 C-237.2246918 762.24071646 -236.30610273 770.13013187 -236.375 778.9375 C-236.36726563 779.90300781 -236.35953125 780.86851562 -236.3515625 781.86328125 C-236.36527196 787.10714944 -236.73084811 791.85470897 -237.84967995 796.99095249 C-238.82187295 801.99850352 -239.38063275 805.78344547 -237.07202148 810.45501709 C-234.58569653 813.44575015 -231.91131436 816.08458988 -229.0390625 818.69140625 C-228.02018849 819.67914528 -227.00522433 820.67093162 -225.99398804 821.66648865 C-223.33563516 824.26222098 -220.62751436 826.79907492 -217.90478516 829.32696533 C-215.16233474 831.89249978 -212.4727828 834.51223364 -209.77734375 837.12695312 C-202.91262409 843.75910455 -196.02259707 850.36475613 -188.8228302 856.63450623 C-184.58487519 860.33082551 -180.42960205 864.1102258 -176.29711914 867.92382812 C-175.50751801 868.65224411 -174.71791687 869.3806601 -173.90438843 870.13114929 C-166.63898849 876.85802136 -159.47156234 883.6852412 -152.3364954 890.55001068 C-147.56202187 895.13822251 -142.75912496 899.68412406 -137.86791992 904.14794922 C-133.10313915 908.49890546 -128.44316541 912.94171006 -123.83511162 917.45811462 C-122.08547509 919.14115266 -120.30333645 920.79119923 -118.48707771 922.40211487 C-108.87070224 930.97493334 -103.01352412 938.91384108 -102.21169567 951.9050346 C-101.92021293 959.53509172 -102.19757131 967.16132961 -102.47274971 974.78783035 C-102.75248329 983.31552574 -102.48866282 991.83740738 -102.29862499 1000.36486375 C-102.19186991 1005.48096258 -102.12431897 1010.59756768 -102.05430603 1015.71427917 C-102.02415098 1017.84796408 -101.99394234 1019.98164823 -101.96368217 1022.11533165 C-101.94854726 1023.19291921 -101.93341234 1024.27050678 -101.91781878 1025.38074851 C-101.87020876 1028.76207196 -101.82198428 1032.14338614 -101.77357674 1035.52469826 C-101.60261168 1047.4714296 -101.43410422 1059.41819282 -101.26782227 1071.36499023 C-101.13288289 1081.05547635 -100.994116 1090.74589866 -100.85180664 1100.4362793 C-100.01132892 1157.7314991 -99.36634295 1215.01056534 -99.625 1272.3125 C-101.71286705 1272.15984317 -103.80056928 1272.00493081 -105.88819885 1271.84906006 C-107.05080514 1271.76303402 -108.21341143 1271.67700798 -109.41124821 1271.58837509 C-112.82576983 1271.2952655 -116.11319848 1270.79152633 -119.46484375 1270.078125 C-121.19504761 1269.71569702 -121.19504761 1269.71569702 -122.96020508 1269.34594727 C-124.1489624 1269.08740967 -125.33771973 1268.82887207 -126.5625 1268.5625 C-127.82666748 1268.29300537 -129.09083496 1268.02351074 -130.39331055 1267.74584961 C-134.13913732 1266.94339218 -137.88205979 1266.12829525 -141.625 1265.3125 C-143.60150181 1264.89164196 -145.57805905 1264.47104412 -147.5546875 1264.05078125 C-189.9225937 1254.89773618 -231.4350935 1239.71841196 -270.625 1221.3125 C-271.58680176 1220.86438965 -272.54860352 1220.4162793 -273.53955078 1219.95458984 C-288.5434795 1212.94706505 -303.23163634 1205.50353252 -317.625 1197.3125 C-318.40488281 1196.87067383 -319.18476562 1196.42884766 -319.98828125 1195.97363281 C-349.48413061 1179.12783469 -377.74371418 1159.3995732 -403.88818359 1137.74511719 C-406.38734405 1135.68367868 -408.91545371 1133.65833293 -411.4375 1131.625 C-416.04273356 1127.85645302 -420.45373534 1123.90461696 -424.82421875 1119.8671875 C-427.00593764 1117.87716776 -429.20827153 1115.9278449 -431.4375 1113.9921875 C-435.69577064 1110.27753654 -439.82891228 1106.44141512 -443.9375 1102.5625 C-444.67661621 1101.86511719 -445.41573242 1101.16773438 -446.17724609 1100.44921875 C-453.94342474 1093.09766502 -461.68052302 1085.74015569 -468.625 1077.59375 C-470.7941056 1075.11961393 -473.03370941 1072.72327807 -475.28613281 1070.32519531 C-480.53941385 1064.73067551 -485.59629909 1059.06591771 -490.39453125 1053.0703125 C-492.4045113 1050.58511825 -494.46657094 1048.1543371 -496.55371094 1045.73388672 C-503.30788564 1037.88102657 -509.50305858 1029.66320178 -515.625 1021.3125 C-516.15915527 1020.58869141 -516.69331055 1019.86488281 -517.24365234 1019.11914062 C-525.12111838 1008.43481522 -532.56523095 997.55283452 -539.625 986.3125 C-540.15125977 985.47783203 -540.67751953 984.64316406 -541.21972656 983.78320312 C-552.98033863 965.09605324 -563.63047213 946.0007669 -573.625 926.3125 C-574.18380859 925.21244629 -574.74261719 924.11239258 -575.31835938 922.97900391 C-594.25525178 885.42083396 -609.82129194 845.09244676 -619.89404297 804.23779297 C-620.60577288 801.389447 -621.36039194 798.55614809 -622.12890625 795.72265625 C-635.87311246 744.29474191 -640.87307466 690.47361117 -640.8125 637.375 C-640.81156342 636.3020166 -640.81062683 635.2290332 -640.80966187 634.12353516 C-640.64326224 545.71369365 -621.01844477 458.2937047 -581.625 370.3125 C-581.19300293 369.35311523 -580.76100586 368.39373047 -580.31591797 367.40527344 C-574.40397376 354.35086705 -567.62098156 341.81340711 -560.625 329.3125 C-560.13628418 328.43303711 -559.64756836 327.55357422 -559.14404297 326.64746094 C-534.45139477 282.28159954 -503.95671139 241.09845347 -469.24511719 204.05029297 C-467.53041011 202.21103966 -465.83105941 200.35836203 -464.1328125 198.50390625 C-455.67953277 189.3175722 -446.84222083 180.66319826 -437.66650391 172.20117188 C-435.70853257 170.38977911 -433.7641309 168.56507503 -431.82421875 166.734375 C-425.92618317 161.18009973 -419.96711703 155.79869363 -413.63671875 150.734375 C-411.34602101 148.89230937 -409.08323738 147.02992061 -406.83203125 145.140625 C-396.40862603 136.41276365 -385.65653411 128.25408008 -374.625 120.3125 C-373.91907715 119.79977539 -373.2131543 119.28705078 -372.48583984 118.75878906 C-324.18934496 83.7024903 -267.39520802 51.38199632 -209.703125 34.953125 C-207.2555518 34.19860995 -204.96368218 33.16711117 -202.62915039 32.11987305 C-181.22344398 23.49657288 -157.2971975 18.73361156 -134.77734375 13.98730469 C-131.82364425 13.35502267 -128.88048031 12.68799082 -125.9375 12.0078125 C-107.36639912 7.79609425 -88.53234501 5.42227751 -69.625 3.3125 C-68.48282013 3.18394623 -68.48282013 3.18394623 -67.31756592 3.05279541 C-44.90020876 0.56373647 -22.54607758 0.03166338 0 0 Z " fill="#FEFEFE" transform="translate(1067.625,381.6875)"/>
<path d="M0 0 C6.02561448 11.34693636 10.95622151 22.80297136 15 35 C15.25491211 35.76779785 15.50982422 36.5355957 15.77246094 37.32666016 C28.37930485 76.23738061 32.99498472 118.36769991 36 159 C36.07202637 159.95422852 36.14405273 160.90845703 36.21826172 161.89160156 C38.2427718 190.32066353 38.22046785 219.68609016 35 248 C34.90348145 248.92586914 34.80696289 249.85173828 34.70751953 250.80566406 C30.24335484 293.2482151 17.02498362 332.9957502 -2 371 C-2.60545654 372.22275635 -2.60545654 372.22275635 -3.22314453 373.47021484 C-18.42647675 404.02871456 -40.63889827 430.62376656 -64.54946899 454.72470093 C-65.95844151 456.14559002 -67.36343847 457.57041788 -68.76831055 458.99536133 C-74.86766649 465.10234896 -81.24393451 470.63512198 -88 476 C-89.24334147 477.02436995 -90.48456108 478.05132657 -91.72265625 479.08203125 C-145.13916243 523 -145.13916243 523 -166 523 C-166.57561043 539.30067488 -166.97066556 555.59490892 -167.16321373 571.90416908 C-167.25667692 579.48138761 -167.40527914 587.04945042 -167.69042969 594.62207031 C-170.51656046 631.99387446 -170.51656046 631.99387446 -156.4965229 664.82607841 C-150.53326601 671.04381841 -143.78740575 676.13666925 -136.62757111 680.88396454 C-133.15132926 683.26764483 -130.04263686 686.09337134 -127 689 C-126.15236808 689.58454232 -125.30473616 690.16908464 -124.43141842 690.77134037 C-120.91123037 694.35147144 -121.39504205 698.61961279 -121.35459346 703.38722688 C-121.36915766 704.6722394 -121.38372187 705.95725193 -121.39872742 707.28120422 C-121.39654681 708.66320784 -121.39216847 710.04520944 -121.38578159 711.42720002 C-121.37459621 715.22429369 -121.3946074 719.02068279 -121.41967189 722.81768668 C-121.44125088 726.91238802 -121.43395829 731.00704918 -121.43016052 735.10179138 C-121.42753791 742.1959863 -121.44323417 749.28995141 -121.47134972 756.38408852 C-121.51197355 766.6409977 -121.52500578 776.89779568 -121.53128967 787.1547766 C-121.54223462 803.7957116 -121.57551423 820.4365241 -121.62280273 837.07739258 C-121.66869315 853.24307644 -121.7040876 869.40872705 -121.7253418 885.57446289 C-121.72665541 886.5708058 -121.72796903 887.5671487 -121.72932246 888.59368382 C-121.73584761 893.59201023 -121.74216616 898.59033689 -121.74838197 903.5886637 C-121.8002212 945.05919435 -121.88829193 986.52959017 -122 1028 C-121.1239209 1028.45310547 -120.2478418 1028.90621094 -119.34521484 1029.37304688 C-118.18715332 1029.98212891 -117.0290918 1030.59121094 -115.8359375 1031.21875 C-114.6917334 1031.81623047 -113.5475293 1032.41371094 -112.36865234 1033.02929688 C-107.2480309 1036.02492351 -103.20351406 1039.85611025 -99 1044 C-98.37609375 1044.55171875 -97.7521875 1045.1034375 -97.109375 1045.671875 C-85.57316569 1056.16878617 -78.07246208 1073.15649717 -76.77880859 1088.64892578 C-76.27825082 1100.72834341 -76.57993215 1111.63825182 -81 1123 C-81.36222656 1124.03125 -81.72445313 1125.0625 -82.09765625 1126.125 C-84.93660612 1133.66987017 -88.99705357 1139.71885569 -94 1146 C-94.47050781 1146.63550781 -94.94101563 1147.27101563 -95.42578125 1147.92578125 C-106.03014211 1161.53314696 -124.11822783 1170.06191993 -140.89453125 1172.5859375 C-162.72465165 1175.01929734 -182.0458433 1170.49540453 -199.5 1156.9375 C-201.01489846 1155.64222438 -202.51647298 1154.33109122 -204 1153 C-204.60972656 1152.48308594 -205.21945312 1151.96617188 -205.84765625 1151.43359375 C-219.58750452 1138.94566788 -227.11656294 1119.60080529 -228.21484375 1101.44921875 C-228.75224823 1080.74839821 -222.40274361 1062.62872375 -209 1047 C-208.38640625 1046.27425781 -207.7728125 1045.54851562 -207.140625 1044.80078125 C-200.545912 1037.6283263 -191.70453779 1032.26262867 -183 1028 C-182.7251771 988.45751851 -182.51380537 948.91516177 -182.38721605 909.37191562 C-182.37220804 904.70074167 -182.35667612 900.02956959 -182.34082031 895.35839844 C-182.33609872 893.96351231 -182.33609872 893.96351231 -182.33128175 892.54044667 C-182.27910263 877.49418699 -182.18450894 862.44847896 -182.07416645 847.40254626 C-181.96184397 831.95751325 -181.89527297 816.51276862 -181.87093806 801.06734395 C-181.85449329 791.54062283 -181.80260942 782.015461 -181.7050024 772.48922005 C-181.64144057 765.95165507 -181.62242711 759.41489301 -181.63798347 752.87704167 C-181.64565137 749.10749065 -181.634126 745.3406583 -181.5695343 741.57159424 C-180.47207984 724.74089918 -180.47207984 724.74089918 -187.03359002 710.08984244 C-189.54204337 707.81299905 -192.2177888 705.93445709 -195 704 C-197.05227184 701.75239754 -197.05227184 701.75239754 -198.72044373 699.62924194 C-201.55447592 696.30668255 -204.62139007 693.93686084 -208.21903419 691.48379898 C-222.07573724 681.94417703 -236.72397741 669.54944022 -239.95281982 652.27038574 C-243.01232928 633.10442105 -241.67973048 613.14711841 -240.76259005 593.85133195 C-240.37552484 585.53579472 -240.21596813 577.22025061 -240.06732833 568.89761806 C-239.07504846 515.39539036 -234.27646161 462.26843917 -218 411 C-217.80619751 410.38549988 -217.61239502 409.77099976 -217.41271973 409.13787842 C-207.93618062 379.12093623 -196.68987355 350.11711995 -183.24365234 321.64306641 C-182.05972436 319.12692892 -180.89602959 316.60248805 -179.73828125 314.07421875 C-174.05213014 301.73706326 -167.63691228 289.84848957 -161 278 C-160.50064941 277.10458496 -160.00129883 276.20916992 -159.48681641 275.28662109 C-146.68469252 252.38128963 -132.55450887 230.26522224 -117.15625 209.015625 C-115.03518141 206.04920299 -113.0056519 203.04494425 -111 200 C-126.65817327 205.57822423 -139.12084378 215.52742204 -151 227 C-151.57105469 227.55059082 -152.14210938 228.10118164 -152.73046875 228.66845703 C-160.69466474 236.38428506 -168.22217331 244.20399084 -175 253 C-175.93276523 254.16993187 -176.86641983 255.33915502 -177.80078125 256.5078125 C-191.84400978 274.26954859 -204.34835089 293.51838613 -215.83251953 313.02050781 C-216.59777422 314.31801617 -217.36937736 315.61180581 -218.14794922 316.90136719 C-237.99672549 349.80245159 -250.22422057 388.02814297 -264.44921875 423.6015625 C-264.76707525 424.39642122 -265.08493176 425.19127995 -265.41242027 426.0102253 C-268.59941211 433.98105613 -271.78347572 441.9530443 -274.96024418 449.92795563 C-276.15160279 452.91817609 -277.34419022 455.90790566 -278.53692055 458.89757919 C-279.36431264 460.97312365 -280.18977136 463.04943007 -281.0151825 465.12576294 C-281.51669241 466.38311785 -282.0182991 467.64043416 -282.52001953 468.89770508 C-282.9526712 469.98457108 -283.38532288 471.07143707 -283.83108521 472.1912384 C-284.8009257 474.52164841 -285.83260448 476.76384459 -287 479 C-303.20700756 477.35461852 -316.30625678 465.78502951 -326.61328125 453.95703125 C-334.20464336 444.5516939 -339.48236286 434.33645168 -344.75 423.5 C-345.29309814 422.38496094 -345.83619629 421.26992188 -346.39575195 420.12109375 C-361.77347171 387.79172442 -365.34495746 353.66856555 -365.4375 318.3125 C-365.4436734 317.31504761 -365.4498468 316.31759521 -365.45620728 315.28991699 C-365.53121175 296.47406549 -363.96106517 277.96482393 -358.75 259.8125 C-358.44626465 258.72573975 -358.1425293 257.63897949 -357.82958984 256.51928711 C-346.97999913 218.51774232 -327.37170663 185.32845386 -301 156 C-300.52385254 155.46745605 -300.04770508 154.93491211 -299.55712891 154.38623047 C-289.64615668 143.34238418 -279.36220746 132.32251959 -268.01953125 122.734375 C-265.28686678 120.38756064 -262.64723573 117.94200151 -260 115.5 C-256.01031973 111.82689219 -251.99822488 108.18850678 -247.8828125 104.65625 C-246.61823346 103.54384022 -245.38346078 102.39669124 -244.1796875 101.21875 C-236.42242344 93.79611302 -227.13940706 88.52751607 -218 83 C-216.68080566 82.20021729 -216.68080566 82.20021729 -215.33496094 81.38427734 C-202.66789835 73.73385041 -189.81784009 66.45333116 -176.76660156 59.47949219 C-174.9302956 58.49749306 -173.09628034 57.51119769 -171.26464844 56.52050781 C-149.21673206 44.60505033 -126.45883925 34.58394677 -103.125 25.5 C-102.37731354 25.20845032 -101.62962708 24.91690063 -100.85928345 24.61651611 C-69.60330254 12.47058146 -33.9105972 -0.46510794 0 0 Z " fill="#FEFEFE" transform="translate(1233,580)"/>
<path d="M0 0 C8.56592364 4.96777143 14.97049096 11.7710352 18.0546875 21.35546875 C19.69802423 30.29320833 18.79606479 39.73811733 14.1484375 47.625 C8.60752523 55.44746438 1.8894381 61.14845921 -7.5625 63.4375 C-17.6755005 64.57535769 -25.82966546 63.47266479 -34.1875 57.58984375 C-40.95965965 52.03707594 -46.48032274 45.37800223 -47.8671875 36.48339844 C-48.65014104 28.25064193 -48.13000243 20.53776079 -43.5625 13.4375 C-43.13839844 12.74269531 -42.71429687 12.04789063 -42.27734375 11.33203125 C-33.02430707 -2.40576416 -14.92510779 -7.05790091 0 0 Z " fill="#017638" transform="translate(757.5625,1131.5625)"/>
<path d="M0 0 C7.57373359 5.50305457 13.08642733 12.56220208 14.62890625 21.91015625 C15.51779309 33.84455503 14.16477125 42.06045264 6.37890625 51.28515625 C2.48862568 55.36068827 -1.10845133 57.96354443 -6.37109375 59.91015625 C-7.27859375 60.32265625 -8.18609375 60.73515625 -9.12109375 61.16015625 C-19.24814195 63.49716737 -27.71236189 61.82216122 -36.55859375 56.625 C-44.36760136 51.31546642 -49.57938171 43.17967476 -51.37109375 33.91015625 C-52.56013734 23.07664797 -49.95299262 14.23359828 -43.13671875 5.73046875 C-31.90612544 -5.8479748 -13.83598801 -7.96275228 0 0 Z " fill="#017638" transform="translate(1385.37109375,1089.08984375)"/>
<path d="M0 0 C7.49048128 5.77519809 12.29910144 12.83254631 13.75 22.30078125 C14.18583998 31.17223385 11.27137431 38.98083929 5.62109375 45.765625 C0.64194181 50.96814077 -5.43432914 54.60406684 -12.7734375 54.99609375 C-13.98386719 55.00253906 -15.19429687 55.00898437 -16.44140625 55.015625 C-18.24544922 55.03689453 -18.24544922 55.03689453 -20.0859375 55.05859375 C-27.38466903 54.58381408 -33.11315676 51.48543048 -38.62890625 46.828125 C-45.16458299 38.94645964 -47.28863617 31.82499937 -47.015625 21.63671875 C-46.4626761 16.1910099 -44.63496792 12.33283549 -41.62890625 7.828125 C-41.07203125 6.920625 -40.51515625 6.013125 -39.94140625 5.078125 C-29.16626129 -5.40579983 -12.9369691 -8.22737411 0 0 Z " fill="#027738" transform="translate(1097.62890625,1652.171875)"/>
</svg>
